inDegrees=no
num_controls=7
num_derivatives=13
num_iterations=128
num_multipliers=7
num_parameters=0
num_slacks=7
num_states=26
objective=5.357506
objective_accelerations=0.596569
objective_balance=0.033605
objective_effort=0.329308
objective_height=4.291307
objective_ligament=0.106718
solver_duration=1423.355280
status=Solve_Succeeded
success=true
DataType=double
version=3
OpenSimVersion=4.4-2022-07-23-0e9fedc
endheader
time	/jointset/ground_pelvis/pelvis_tilt/value	/jointset/ground_pelvis/pelvis_tx/value	/jointset/ground_pelvis/pelvis_ty/value	/jointset/hip_l/hip_flexion_l/value	/jointset/hip_l/hip_adduction_l/value	/jointset/hip_l/hip_rotation_l/value	/jointset/back/lumbar_extension/value	/jointset/patellofemoral_l/patellar_flexion_l/value	/jointset/knee_l/knee_flexion_l/value	/jointset/knee_l/knee_adduction_l/value	/jointset/knee_l/knee_rotation_l/value	/jointset/ankle_l/ankle_angle_l/value	/jointset/subtalar_l/subtalar_angle_l/value	/jointset/ground_pelvis/pelvis_tilt/speed	/jointset/ground_pelvis/pelvis_tx/speed	/jointset/ground_pelvis/pelvis_ty/speed	/jointset/hip_l/hip_flexion_l/speed	/jointset/hip_l/hip_adduction_l/speed	/jointset/hip_l/hip_rotation_l/speed	/jointset/back/lumbar_extension/speed	/jointset/patellofemoral_l/patellar_flexion_l/speed	/jointset/knee_l/knee_flexion_l/speed	/jointset/knee_l/knee_adduction_l/speed	/jointset/knee_l/knee_rotation_l/speed	/jointset/ankle_l/ankle_angle_l/speed	/jointset/subtalar_l/subtalar_angle_l/speed	/forceset/tau_hip_flexion_l	/forceset/tau_hip_adduction_l	/forceset/tau_hip_rotation_l	/forceset/tau_knee_flexion_l	/forceset/tau_ankle_angle_l	/forceset/tau_subtalar_angle_l	/forceset/tau_lumbar_extension	lambda_cid13_p0	lambda_cid13_p1	lambda_cid13_p2	lambda_cid13_p3	lambda_cid13_p4	lambda_cid13_p5	lambda_cid14_p0	/jointset/ground_pelvis/pelvis_tilt/accel	/jointset/ground_pelvis/pelvis_tx/accel	/jointset/ground_pelvis/pelvis_ty/accel	/jointset/hip_l/hip_flexion_l/accel	/jointset/hip_l/hip_adduction_l/accel	/jointset/hip_l/hip_rotation_l/accel	/jointset/back/lumbar_extension/accel	/jointset/patellofemoral_l/patellar_flexion_l/accel	/jointset/knee_l/knee_flexion_l/accel	/jointset/knee_l/knee_adduction_l/accel	/jointset/knee_l/knee_rotation_l/accel	/jointset/ankle_l/ankle_angle_l/accel	/jointset/subtalar_l/subtalar_angle_l/accel	gamma_cid13_p0	gamma_cid13_p1	gamma_cid13_p2	gamma_cid13_p3	gamma_cid13_p4	gamma_cid13_p5	gamma_cid14_p0
1.5	-0.4733065206922649	-0.08457903420511829	0.7690900908425009	1.169605228957574	-0.421821698127313	-0.2927733816410438	-0.2298093300544063	0.6030668387244114	0.6030668387244477	-0.1648928713080082	-0.1586485612648277	-0.05882457900871327	-0.1000074721667422	0.9743071260789101	0.4361013110181298	0.4875024654822077	-2.595239598805282	0.2188681754241805	-0.5545448715241448	0.3014513859837334	-1.469737703330816	-1.469737703331796	-0.02807017353435935	0.09393426259703209	0.07432335443092213	0.2694638848499143	-0.2230388109070406	0.01595700045782907	-0.002837453951676006	-0.1506834752199777	0.09980235747982963	0.06161371924442005	0.1997078945081106	-1.403102943184812	-28.70471814511731	6.743680607919354	-10.02295908773121	-522.8720928059951	-67.14242446690493	-34.42475756131732	0.7519374392476739	0.8155836382159849	-0.385154978693001	-1.589177787173813	0.4877803714701996	-0.07467228587645515	1.580986791840366	-0.9795783300333329	-0.9795783300335498	0.0337075227542494	0.2854521908588659	0.03351813349802554	0.5705727975779635	-3.440884960947476e-08	6.486862684214246e-07	3.063687925679272e-08	2.447073691804539e-07	1.825498832473097e-07	-2.618755801870956e-07	1.126456052543543e-07
1.51	-0.4635261979749511	-0.08017766163579197	0.7739448721418623	1.143575437244792	-0.4196097077773997	-0.2983230137956463	-0.2267171719212065	0.5883226594614885	0.5883226594613391	-0.1651730434940693	-0.1576965776844363	-0.05807976300063197	-0.09728542424500121	0.9816095506611698	0.4441186478680794	0.4833494560135498	-2.610352642354137	0.2235016827724711	-0.5553117893353239	0.3169538300369376	-1.478891397282365	-1.478891397282789	-0.02796421445327162	0.09645259427802692	0.07464106116589657	0.2749201391102458	-0.215468520400481	0.01524212265255436	-0.002839808878827785	-0.1489470293612829	0.0972262447541427	0.05983952570418111	0.1938137059529799	-1.972768181359494	-27.91892891235334	6.714909044824697	-9.498802415915357	-518.7547193955912	-67.16807351169909	-34.98521851171998	0.6972047825167405	0.7866723599734725	-0.445980656265091	-1.41746019095846	0.4467806278798405	-0.06712976432684491	1.53091162077171	-0.8522762090978913	-0.8522762090143686	-0.0008206119483724905	0.2334865590034485	0.03107888179006691	0.5292170053665474	-2.73936698748117e-08	6.616847643492689e-07	-1.128231084399217e-08	2.379719075924954e-07	2.073711487770313e-07	-2.604446457370092e-07	1.177567494074683e-07
1.52	-0.4536772890488724	-0.07569774296764882	0.7787550020014716	1.117405496586068	-0.4173522534117431	-0.3038782007753972	-0.2234707816657345	0.5734931410027487	0.5734931410024513	-0.1654521282318769	-0.1567197182068423	-0.05733173353753072	-0.09450960072763577	0.9880243678354863	0.4518105307814953	0.4785721775319812	-2.623269387991711	0.2279609785755805	-0.5556558365700228	0.3322978104385782	-1.486805542489198	-1.486805542489065	-0.02785268388152336	0.0989094420503958	0.07496604543259076	0.280219003974826	-0.2078982298937677	0.01452724484751173	-0.002842163805761807	-0.1472105835025727	0.09465013202854068	0.05806533216422138	0.1879195173978666	-2.552998521687558	-27.13221084792633	6.687041565632974	-8.943056273870955	-514.771481862206	-67.22033242491091	-35.52749517703429	0.5744159576597764	0.7504928509085483	-0.5100087812753081	-1.149918204917497	0.4529380624338777	0.009901829419893073	1.54929406152794	-0.7316685810898278	-0.731668581089831	0.03482182088633257	0.2731554091339031	0.03497363984109198	0.5390949184272953	-2.600348879325651e-08	6.826910304386474e-07	-2.804504143876262e-08	2.367582305205872e-07	2.259118610819293e-07	-2.545461870194895e-07	1.200813050789055e-07
1.53	-0.4437686514329914	-0.071142626708043	0.7835142902363523	1.091117374019414	-0.4150511156529422	-0.3094348037584427	-0.2200720377725124	0.5585907240406727	0.5585907240405061	-0.1657300927820042	-0.1557186689039846	-0.05658043638855372	-0.09168162836780841	0.9935499217449224	0.4591478047456711	0.4731853679786138	-2.633975198304147	0.232233805470269	-0.5555914950898817	0.3474014739345202	-1.493462375471904	-1.493462375471921	-0.02774214352557165	0.1012917638090659	0.07529313013589768	0.2853441668378349	-0.2002417003860296	0.0136301720377112	-0.002869885548695178	-0.1454829951669109	0.09212097880434363	0.05622320593626316	0.1818996678861089	-3.120859635638157	-26.32026730733109	6.657564655497763	-8.354191342344018	-510.7705769242958	-67.23202613524367	-36.04874265082204	0.5186258704117509	0.7156559885200693	-0.5679834360348252	-0.9739349215292636	0.4094047302429548	0.0157974852296862	1.483478354545818	-0.6003933091284929	-0.6003933091507457	-0.0009747834301168587	0.2194146716490922	0.03153765864893762	0.4944195224372762	-3.058986878062836e-08	7.122055523246558e-07	-1.807903380839302e-08	2.414114494969825e-07	2.377794855854525e-07	-2.439009837678219e-07	1.194451104885611e-07
1.54	-0.4338093581254791	-0.06651607544492588	0.7882167170969626	1.064733588854208	-0.4127082596797456	-0.3149885438910258	-0.2165237420721506	0.5436281982183212	0.5436281982182701	-0.1660069809139887	-0.1546940675610215	-0.0558258760379157	-0.08880336586891123	0.9981555061674119	0.4660975314837563	0.4671999026780265	-2.642401907701518	0.2363046214551784	-0.5550832664929909	0.3622081718671838	-1.498827314545315	-1.498827314545482	-0.02763740022475773	0.1036198500643784	0.07561868576213933	0.2902770317888455	-0.1925851708780207	0.01273309922818678	-0.00289760729196169	-0.1437554068311674	0.08959182558023523	0.0543810797086384	0.1758798183744601	-3.699919170453167	-25.5071000016875	6.628734617396618	-7.728528822684385	-506.9073775333165	-67.27029072784258	-36.54615166368595	0.3904220602710022	0.6729834056897047	-0.6297399307194154	-0.6940980219045843	0.412535880478084	0.09867925277024739	1.489900948872452	-0.4732897992305338	-0.4732897992305332	0.03366240985876903	0.2623083084625827	0.03466782442714841	0.5006353360272193	-3.343388445809073e-08	7.3304998653901e-07	-1.373526113568795e-08	2.420534418520947e-07	2.509267014186727e-07	-2.317227636756887e-07	1.182256857183567e-07
1.55	-0.4238086319116415	-0.06182207516277043	0.7928563545210621	1.038277001787028	-0.4103257236597322	-0.3205350943572544	-0.2128290893604378	0.5286185168047182	0.5286185168045774	-0.1662828249204275	-0.1536465355302348	-0.05506811186584369	-0.08587678128373941	1.001829874225884	0.4726260096707386	0.4606322869229002	-2.648517356896579	0.2401651465938227	-0.5541607194598505	0.3766539055371679	-1.502881362349463	-1.502881362349239	-0.02752956602679001	0.1058681928454685	0.0759315851016351	0.2950022992966043	-0.1849392290145262	0.01181310686129821	-0.002943981237962815	-0.1419440824526763	0.08702335207215843	0.05240638190690912	0.1698112517131694	-4.299325295340003	-24.63592524480816	6.594232713258417	-7.035425377814736	-503.0857171194971	-67.19271493867187	-37.01684009788931	0.3319479156340442	0.631349904195024	-0.6845119468822072	-0.5105598229327757	0.3670573888144346	0.09906494965027937	1.411639836918215	-0.3373444536891684	-0.3373444536303623	-0.0002360952975948918	0.2032836655265547	0.02921615093015793	0.4527194007914842	-3.42703934306575e-08	7.439049719142848e-07	-1.586928091420467e-08	2.380738035348595e-07	2.655482290013262e-07	-2.177782415717147e-07	1.16334278349618e-07
1.56	-0.4137759612698559	-0.05706507612294633	0.7974274678778118	1.011771201936973	-0.4079057330766737	-0.3260704148488674	-0.2089920332598581	0.5135751184765737	0.5135751184762885	-0.1665575065891566	-0.1525770827909843	-0.05430729566791857	-0.082904094634962	1.004544391764318	0.4786972830174852	0.45349508920822	-2.652244464276701	0.2437955340626903	-0.5528372715841235	0.3906888496414044	-1.50557069746092	-1.505570697460306	-0.02740493263129527	0.1080039917303456	0.07622909092989724	0.2994974445100338	-0.1772932871506585	0.01089311449471605	-0.002990355184817104	-0.1401327580740329	0.08445487856417437	0.05043168410555352	0.1637426850520682	-4.910216978303772	-23.76339199911197	6.560259770613743	-6.303799512810774	-499.4001110950658	-67.14042120714424	-37.45930445572712	0.1984519562635648	0.5815424376417966	-0.7436563226303553	-0.2164296589167138	0.366508346522833	0.1788594212879554	1.407743035722997	-0.2003472606923254	-0.2003472606923156	0.03702224936419283	0.2397995292201759	0.03158912217954184	0.4546108771609393	-2.97197787468863e-08	7.396828853931968e-07	-3.46017087250617e-08	2.243860759126888e-07	2.887417708811233e-07	-2.057581974487417e-07	1.149442294755853e-07
